<svg width="21" height="24" viewBox="0 0 21 24" fill="none" xmlns="http://www.w3.org/2000/svg">
<path d="M5.16699 2H13.417L18.8337 7.41667V19C18.8337 20.6569 17.4905 22 15.8337 22H5.16699C3.51014 22 2.16699 20.6569 2.16699 19V5C2.16699 3.34315 3.51014 2 5.16699 2Z" stroke="#B7B7CC" stroke-width="2" stroke-linecap="round" stroke-linejoin="round"/>
<path d="M13 2V7.83333H18.8333" stroke="#B7B7CC" stroke-width="2" stroke-linecap="round" stroke-linejoin="round"/>
<path d="M8.93029 14.9881C7.74122 17.669 5.63185 19.5387 4.79852 18.2887C3.96519 17.0387 7.30064 15.6089 8.93029 14.9881ZM8.93029 14.9881C9.58586 13.51 10.9734 10.4569 11.0478 8.28865C11.1152 6.32616 8.82029 6.60613 9.38117 9.12206C9.94205 11.638 11.1248 14.206 14.3812 14.9881C17.7145 15.7886 17.2978 13.2886 15.2145 13.2886C13.1312 13.2886 11.2797 14.0334 8.93029 14.9881Z" stroke="#B7B7CC" stroke-width="1.6"/>
</svg>
